<?xml version="1.0" encoding="utf-8"?>
<!-- Generator: Adobe Illustrator 18.1.1, SVG Export Plug-In . SVG Version: 6.00 Build 0)  -->
<svg version="1.1" id="Layer_1" xmlns="http://www.w3.org/2000/svg" xmlns:xlink="http://www.w3.org/1999/xlink" x="0px" y="0px"
	 viewBox="0 0 130 28" enable-background="new 0 0 130 28" xml:space="preserve">
<path fill-rule="evenodd" clip-rule="evenodd" d="M120.1,10.9c-0.7-3.4-4.3-4.8-8.7-5c-5.6-0.3-11.1,0.7-12.5,3.1
	c-1.1,1.6-1.6,7.9,0,10.7c0.2,0.2,1.7,3.7,13,2.9c7.9-0.2,7.8-4.9,7.8-5.1c-0.7,0-3.5,0-3.5,0c-0.1,1.4-1.6,2.5-3,2.9
	c-1.5,0.3-3.8,0.7-7,0.2c-4.5-0.9-4.5-4.2-4.5-5.6c0.2,0,18.5,0,18.5,0C120.3,14.7,120.3,11.9,120.1,10.9z M116.4,13.1h-14.7
	c-0.2-4.2,3.3-5.1,5.3-5.3c0.4-0.1,2.9-0.3,4.8,0C117.1,8.6,116.4,13.1,116.4,13.1z"/>
<g>
	<rect x="29.7" y="6.2" fill-rule="evenodd" clip-rule="evenodd" width="3.8" height="15.9"/>
	<polygon fill-rule="evenodd" clip-rule="evenodd" points="24.7,6.2 20.6,6.2 12.8,18.5 5.3,6.2 1,6.2 10.3,22.1 14.6,22.1 	"/>
	<polygon fill-rule="evenodd" clip-rule="evenodd" points="62.7,6.2 59.1,6.2 59.1,18.2 45.5,6.2 41.5,6.2 41.5,22.1 44.8,22.1 
		44.8,10.2 58.4,22.1 62.7,22.1 	"/>
	<circle fill-rule="evenodd" clip-rule="evenodd" cx="126.5" cy="20.2" r="2.2"/>
	<path fill-rule="evenodd" clip-rule="evenodd" d="M91.5,16.5H88c0,4.4-7.4,4.1-7.4,4.1c-7.8,0-7.2-6.4-7.2-6.4c0-7,7.1-6.6,7.1-6.6
		c7.8,0,7.5,4.3,7.5,4.3h3.6c0-6.7-11-6.1-11-6.1c-11.8,0-11.1,8.4-11.1,8.4c0,9.2,11.1,8.4,11.1,8.4C92.9,22.6,91.5,16.5,91.5,16.5
		z"/>
</g>
</svg>
